<svg width="1440" height="1024" viewBox="0 0 1440 1024" fill="none" xmlns="http://www.w3.org/2000/svg">
<rect width="1440" height="1024" fill="#3730A3"/>
<ellipse cx="435.5" cy="511.5" rx="284.5" ry="259.5" fill="#F97316"/>
<path d="M257.375 585V439.545H362.205V471.364H296.864V496.364H356.807V528.182H296.864V553.182H361.92V585H257.375ZM421.846 586.42C414.081 586.42 406.931 584.384 400.397 580.312C393.91 576.241 388.702 570.062 384.772 561.776C380.889 553.49 378.948 543.049 378.948 530.455C378.948 517.292 380.984 506.591 385.056 498.352C389.175 490.114 394.478 484.077 400.965 480.241C407.499 476.406 414.365 474.489 421.562 474.489C426.96 474.489 431.694 475.436 435.766 477.33C439.838 479.176 443.247 481.662 445.994 484.787C448.74 487.865 450.823 491.25 452.244 494.943H452.812V439.545H492.016V585H453.096V567.102H452.244C450.728 570.795 448.55 574.11 445.71 577.045C442.916 579.934 439.507 582.23 435.482 583.935C431.505 585.592 426.96 586.42 421.846 586.42ZM436.335 556.307C439.933 556.307 443.011 555.265 445.567 553.182C448.172 551.051 450.16 548.068 451.533 544.233C452.954 540.35 453.664 535.758 453.664 530.455C453.664 525.057 452.954 520.44 451.533 516.605C450.16 512.723 448.172 509.763 445.567 507.727C443.011 505.644 439.933 504.602 436.335 504.602C432.736 504.602 429.658 505.644 427.102 507.727C424.592 509.763 422.651 512.723 421.278 516.605C419.952 520.44 419.289 525.057 419.289 530.455C419.289 535.852 419.952 540.492 421.278 544.375C422.651 548.21 424.592 551.17 427.102 553.253C429.658 555.289 432.736 556.307 436.335 556.307ZM582.002 537.273V475.909H621.207V585H583.991V564.261H582.854C580.487 571.222 576.344 576.667 570.425 580.597C564.507 584.479 557.476 586.42 549.332 586.42C541.709 586.42 535.032 584.669 529.303 581.165C523.621 577.661 519.194 572.831 516.022 566.676C512.897 560.521 511.311 553.466 511.263 545.511V475.909H550.468V537.273C550.515 542.67 551.888 546.908 554.587 549.986C557.334 553.063 561.169 554.602 566.093 554.602C569.36 554.602 572.177 553.916 574.545 552.543C576.96 551.122 578.806 549.134 580.085 546.577C581.41 543.973 582.049 540.871 582.002 537.273ZM640.578 585V439.545H703.362C714.158 439.545 723.604 441.676 731.7 445.938C739.797 450.199 746.094 456.188 750.592 463.906C755.09 471.624 757.339 480.644 757.339 490.966C757.339 501.383 755.019 510.402 750.379 518.026C745.786 525.649 739.323 531.52 730.99 535.639C722.704 539.759 713.021 541.818 701.942 541.818H664.442V511.136H693.987C698.627 511.136 702.581 510.331 705.848 508.722C709.162 507.064 711.696 504.721 713.447 501.69C715.247 498.66 716.146 495.085 716.146 490.966C716.146 486.799 715.247 483.248 713.447 480.312C711.696 477.33 709.162 475.057 705.848 473.494C702.581 471.884 698.627 471.08 693.987 471.08H680.067V585H640.578ZM811.601 439.545V585H772.396V439.545H811.601ZM902.315 537.273V475.909H941.519V585H904.303V564.261H903.167C900.799 571.222 896.656 576.667 890.738 580.597C884.819 584.479 877.788 586.42 869.644 586.42C862.021 586.42 855.345 584.669 849.616 581.165C843.934 577.661 839.507 572.831 836.335 566.676C833.21 560.521 831.623 553.466 831.576 545.511V475.909H870.781V537.273C870.828 542.67 872.201 546.908 874.9 549.986C877.646 553.063 881.481 554.602 886.406 554.602C889.673 554.602 892.49 553.916 894.857 552.543C897.272 551.122 899.119 549.134 900.397 546.577C901.723 543.973 902.362 540.871 902.315 537.273ZM1061.17 511.42H1025.1C1024.91 509.195 1024.12 507.277 1022.75 505.668C1021.38 504.058 1019.6 502.827 1017.42 501.974C1015.29 501.075 1012.93 500.625 1010.32 500.625C1006.96 500.625 1004.07 501.241 1001.66 502.472C999.243 503.703 998.059 505.455 998.107 507.727C998.059 509.337 998.746 510.829 1000.17 512.202C1001.63 513.575 1004.45 514.64 1008.62 515.398L1030.78 519.375C1041.95 521.411 1050.26 524.844 1055.71 529.673C1061.2 534.455 1063.97 540.871 1064.02 548.92C1063.97 556.686 1061.65 563.433 1057.06 569.162C1052.51 574.844 1046.28 579.247 1038.38 582.372C1030.52 585.45 1021.54 586.989 1011.46 586.989C994.792 586.989 981.748 583.58 972.325 576.761C962.95 569.943 957.718 560.947 956.629 549.773H995.55C996.071 553.229 997.775 555.904 1000.66 557.798C1003.6 559.645 1007.29 560.568 1011.74 560.568C1015.34 560.568 1018.3 559.953 1020.62 558.722C1022.99 557.491 1024.2 555.739 1024.24 553.466C1024.2 551.383 1023.15 549.725 1021.12 548.494C1019.13 547.263 1016 546.269 1011.74 545.511L992.425 542.102C981.298 540.161 972.964 536.468 967.425 531.023C961.885 525.578 959.139 518.57 959.186 510C959.139 502.424 961.127 496.009 965.152 490.753C969.224 485.45 975.024 481.425 982.553 478.679C990.128 475.885 999.101 474.489 1009.47 474.489C1025.24 474.489 1037.67 477.756 1046.76 484.29C1055.9 490.824 1060.7 499.867 1061.17 511.42ZM1131.31 586.989C1119.66 586.989 1109.62 584.763 1101.2 580.312C1092.82 575.814 1086.35 569.375 1081.81 560.994C1077.31 552.566 1075.06 542.481 1075.06 530.739C1075.06 519.47 1077.33 509.621 1081.88 501.193C1086.42 492.765 1092.84 486.207 1101.12 481.52C1109.41 476.832 1119.19 474.489 1130.46 474.489C1138.7 474.489 1146.15 475.767 1152.83 478.324C1159.51 480.881 1165.21 484.598 1169.95 489.474C1174.68 494.304 1178.33 500.175 1180.88 507.088C1183.44 514.001 1184.72 521.79 1184.72 530.455V539.545H1087.28V517.955H1148.64C1148.59 514.83 1147.79 512.083 1146.22 509.716C1144.71 507.301 1142.65 505.431 1140.05 504.105C1137.49 502.732 1134.58 502.045 1131.31 502.045C1128.14 502.045 1125.23 502.732 1122.57 504.105C1119.92 505.431 1117.79 507.277 1116.18 509.645C1114.62 512.012 1113.79 514.782 1113.7 517.955V541.25C1113.7 544.754 1114.43 547.879 1115.9 550.625C1117.37 553.371 1119.47 555.526 1122.22 557.088C1124.96 558.651 1128.28 559.432 1132.16 559.432C1134.86 559.432 1137.32 559.053 1139.55 558.295C1141.82 557.538 1143.76 556.449 1145.37 555.028C1146.98 553.561 1148.17 551.809 1148.92 549.773H1184.72C1183.49 557.348 1180.58 563.93 1175.98 569.517C1171.39 575.057 1165.31 579.366 1157.73 582.443C1150.2 585.473 1141.39 586.989 1131.31 586.989Z" fill="white"/>
</svg>
